<?xml version="1.0" encoding="utf-8"?>
<!-- Generator: Adobe Illustrator 25.4.1, SVG Export Plug-In . SVG Version: 6.00 Build 0)  -->
<svg version="1.1" id="Layer_1" xmlns="http://www.w3.org/2000/svg" xmlns:xlink="http://www.w3.org/1999/xlink" x="0px" y="0px"
	 viewBox="0 0 512 512" style="enable-background:new 0 0 512 512;" xml:space="preserve">
<g>
	<path style="fill:#FFFFFF;" d="M126,364.7l-4.4,4.4c-0.9-0.9-1.2-2.2-0.6-3.4c0.7-1.5,2.5-2.1,4-1.4
		C125.1,364.3,125.4,364.4,126,364.7z"/>
</g>
<g>
	
		<ellipse transform="matrix(0.7071 -0.7071 0.7071 0.7071 -106.0386 256)" style="fill:#B9C4E1;" cx="256" cy="256" rx="226.2" ry="226.2"/>
	<ellipse style="fill:#FFFFFF;" cx="256" cy="218.9" rx="88" ry="113.7"/>
	<path style="fill:#FFFFFF;" d="M256,341.1c-73.6,0-138.4,22.5-176.2,56.6c41.5,51.5,105,84.5,176.2,84.5
		c71.3,0,134.8-33,176.2-84.5C394.4,363.6,329.6,341.1,256,341.1z"/>
	<path style="fill:#FFFFFF;" d="M289.8,399.6h-67.6c-5.3,0-9.6-4.3-9.6-9.6V265.6c0-5.3,4.3-9.6,9.6-9.6h67.6c5.3,0,9.6,4.3,9.6,9.6
		V390C299.4,395.3,295.1,399.6,289.8,399.6z"/>
	<path style="fill:#FFFFFF;" d="M180.2,224.2c5.1,14.8,3.1,28.9-4.5,31.5s-18-7.2-23.1-21.9c-5.1-14.8-3.1-28.9,4.5-31.5
		C164.7,199.7,175,209.5,180.2,224.2z"/>
	
		<ellipse transform="matrix(0.328 -0.9447 0.9447 0.328 15.9183 480.4283)" style="fill:#FFFFFF;" cx="345.7" cy="229" rx="28.3" ry="14.6"/>
	<path style="fill:#FFFFFF;" d="M179,223.7c-11.4-20.8-23.2-42.9-22.6-66.6c0.6-23.7,18.7-48.8,42.4-47.9c4.1,0.2,8.3,1.1,12.4,0.5
		c8.2-1.2,14.3-7.9,20.9-12.8c15-11.1,35.9-13.8,53.2-6.7c10.7,4.4,19.7,12,30.2,16.9c19.4,9.2,43.4,8.3,62-2.5
		c-3.9,7.3-10.5,13.1-18.2,16.1c7.1,2.3,15,2.1,22-0.6c-4.2,7.6-11.2,13.7-19.3,16.8c6,0.4,12,0.8,18.1,1.2
		c-5.1,7.3-12.5,13-20.8,16.1c4.7,0.2,9.4,0.3,14.2,0.5c-3.5,10.4-12.6,18.7-23.3,21.3c3,0,6.1,0.1,9.1,0.1
		c-10,14.4-19.9,28.8-29.9,43.2c-2.8,4.1-5.8,8.3-10,11c-3.5,2.2-7.6,3.3-11.7,4.2c-29.5,6.6-60.1,8.6-90.2,5.9
		c-10.3-0.9-21.1-2.6-29.3-9c-8.2-6.3-12.6-18.7-6.9-27.4"/>
	<path style="fill:#FFFFFF;" d="M199.3,362.6c0.6-11.9,2.1-23.8,4.4-35.6c5.9,6.7,15.9,7.6,24.9,8c13.6,0.6,27.1,1.1,40.7,1.7
		c1.6,9.2,2.7,20.1-4,26.7c-3.1,3.1-7.4,4.6-11.6,5.7c-9.1,2.5-18.6,3.9-28.1,3.9c-11.3,0.1-24.7-3.3-28.3-14c1.2-1,2.4-2,3.7-3"/>
	<path style="fill:#FFFFFF;" d="M312.7,362.6c-0.6-11.9-2.1-23.8-4.4-35.6c-5.9,6.7-15.9,7.6-24.9,8c-13.6,0.6-27.1,1.1-40.7,1.7
		c-1.6,9.2-2.7,20.1,4,26.7c3.1,3.1,7.4,4.6,11.6,5.7c9.1,2.5,18.6,3.9,28.1,3.9c11.3,0.1,24.7-3.3,28.3-14c-1.2-1-2.4-2-3.7-3"/>
</g>
</svg>
