<?xml version="1.0" encoding="utf-8"?>
<!-- Generator: Adobe Illustrator 25.4.1, SVG Export Plug-In . SVG Version: 6.00 Build 0)  -->
<svg version="1.1" id="Layer_1" xmlns="http://www.w3.org/2000/svg" xmlns:xlink="http://www.w3.org/1999/xlink" x="0px" y="0px"
	 viewBox="0 0 512 512" style="enable-background:new 0 0 512 512;" xml:space="preserve">
<g>
	<path style="fill:#00C853;" d="M385.9,262.7h-44.2c-1.6,29.7-13.7,58.9-36.3,81.5c-48.6,48.6-127.7,48.6-176.4,0
		c-22.6-22.6-34.7-51.8-36.3-81.5H48.5c1.6,41,18,81.5,49.3,112.8c65.9,65.9,173,65.9,238.9,0C367.9,344.2,384.3,303.7,385.9,262.7z
		"/>
	<path style="fill:#00C853;" d="M206.9,167.8c48.6-48.6,127.7-48.6,176.4,0c21.2,21.2,33.1,48.1,35.9,75.7h44.4
		c-2.9-39-19.2-77.2-48.9-107c-65.9-65.9-173-65.9-238.9,0c-29.8,29.8-46.1,68-48.9,107l44.4,0C173.8,215.9,185.8,189,206.9,167.8z"
		/>
	<path style="fill:#FFEB3B;" d="M387.3,243.6l-184.4,0c2.6-19.5,11.4-38.3,26.4-53.3c36.3-36.3,95.2-36.3,131.5,0
		C375.9,205.2,384.7,224,387.3,243.6z"/>
	<path style="fill:#FFEB3B;" d="M283,321.8c-36.3,36.3-95.2,36.3-131.5,0c-16.5-16.5-25.5-37.6-27-59.1H310
		C308.4,284.2,299.4,305.3,283,321.8z"/>
</g>
</svg>
