<?xml version="1.0" encoding="utf-8"?>
<!-- Generator: Adobe Illustrator 25.4.1, SVG Export Plug-In . SVG Version: 6.00 Build 0)  -->
<svg version="1.1" id="Layer_1" xmlns="http://www.w3.org/2000/svg" xmlns:xlink="http://www.w3.org/1999/xlink" x="0px" y="0px"
	 viewBox="0 0 512 512" style="enable-background:new 0 0 512 512;" xml:space="preserve">
<path style="fill:#FFEB3B;" d="M178.5,462.6c-11.7,0-23.5-0.9-35.1-2.6c-11.4-1.7-22.7-4.2-33.8-7.6c-9.5-5.9-18.6-12.5-27.4-19.8
	c-9.6-8-10.3-22.5-1.5-31.3L386,96c53.6,88.6,45.1,203.2-26.3,284.2C313.5,432.6,247.5,462.6,178.5,462.6z"/>
<path style="fill:#00C853;" d="M419.8,417c-67.4,67.4-156.3,88.5-241.6,63.2c2.4,0.1-2.4,0,0,0c9.2,0,18.5-0.5,27.7-1.5
	c64.8-6.9,124.2-37.6,167.4-86.5c43.1-48.9,66.2-111.7,64.9-176.9c-1-47.3-14.7-92.9-39.2-132.3l5-5c8.8-8.8,23.4-8.2,31.4,1.5
	C517.4,178,512.2,324.6,419.8,417z"/>
<g>
	<path style="fill:#00C853;" d="M141,471.4c-40.3-6-78.8-21.6-112.2-46c-5.5-4-9.1-10.2-9.8-17c-0.7-6.8,1.4-13.6,5.9-18.6
		l302.4-343c4.5-5.1,11-8.1,17.8-8.2c6.8-0.1,13.4,2.7,18.1,7.6c43.3,45.8,67.8,105.9,69,169.1c1.3,63.6-21.3,125-63.4,172.8
		C326.5,436,268.5,466,205.2,472.7C183.6,475,162,474.6,141,471.4z M348.1,44.9c-1-0.1-2-0.2-3-0.2c-5.2,0.1-9.9,2.3-13.4,6.2
		l-302.4,343c-3.4,3.9-5,8.9-4.4,14s3.2,9.7,7.4,12.8c33.8,24.7,71.6,39.7,110.3,45.4c80.3,11.9,164.1-16.5,221.7-81.8
		c85.3-96.7,82.9-240.2-5.5-333.8C355.9,47.4,352.1,45.5,348.1,44.9z"/>
</g>
</svg>
